<svg width="12" height="12" viewBox="0 0 12 12" xmlns="http://www.w3.org/2000/svg" xmlns:xlink="http://www.w3.org/1999/xlink"><title>Shape</title><desc>Created using Figma</desc><use xlink:href="#a" fill="#9CA0AE"/><defs><path id="a" d="M11.345 5.161h-4.51V.651C6.835.446 6.556 0 5.998 0c-.558 0-.837.446-.837.651v4.51H.651c-.205 0-.651.28-.651.837 0 .558.446.837.651.837h4.51v4.51c0 .206.28.651.837.651.558 0 .837-.445.837-.65v-4.51h4.51c.206 0 .652-.28.652-.838 0-.558-.446-.837-.652-.837z"/></defs></svg>